{"title":"Shes Out of My League (2010) DVDRip XviD-MAX","uid":5607646,"size":1358226200,"categoryP":"video","categoryS":"movies","magnet":"?xt=urn:btih:68ecca8cdebf000d7d4e465b9ba9e00f4c628221&amp;dn=Shes+Out+of+My+League+%282010%29+DVDRip+XviD-MAX&amp;tr=udp%3A%2F%2Ftracker.openbittorrent.com%3A80&amp;tr=udp%3A%2F%2Fopen.demonii.com%3A1337&amp;tr=udp%3A%2F%2Ftracker.coppersurfer.tk%3A6969&amp;tr=udp%3A%2F%2Fexodus.desync.com%3A6969","seeders":15,"leechers":2,"uploader":"extremezone","files":-1,"time":1275671439,"description":"Shes Out Of My League 2010 720p BluRay x264-MACHD  &lt;a href=&quot;\nhttp://thepiratebay.se/torrent/5607419/Shes_Out_Of_My_League_2010_720p_BluRay_x264-MACHD&quot; rel=&quot;nofollow&quot; target=&quot;_NEW&quot;&gt;\nhttp://thepiratebay.se/torrent/5607419/Shes_Out_Of_My_League_2010_720p_BluRay_x264-MACHD&lt;/a&gt; \n\nShe's Out of My League (2010) DVDRip XviD-MAX \n\nFormat                           : AVI \nFormat/Info                      : Audio Video Interleave \nFormat profile                   : OpenDML \nFile size                        : 1.26 GiB\nDuration                         : 1h 44mn \nOverall bit rate                 : 1 732 Kbps \nWriting application              : VirtualDubMod 1.5.10.2 (build 2542/release)\nWriting library                  : VirtualDubMod build 2542/release\nOriginal source form             : MAX TORRENTZ\nCopyright                        : SIGISMUNT\n\nVideo\nID                               : 0\nFormat                           : MPEG-4 Visual\nFormat profile                   : AdvancedSimple@L5\nFormat settings, BVOP            : Yes \nFormat settings, QPel            : No\nFormat settings, GMC             : No warppoints\nFormat settings, Matrix          : Default (MPEG)\nCodec ID                         : XVID\nCodec ID/Hint                    : XviD\nDuration                         : 1h 44mn \nBit rate                         : 1 343 Kbps\nWidth                            : 720 pixels\nHeight                           : 304 pixels\nDisplay aspect ratio             : 2.35:1\nFrame rate                       : 23.976 fps\nResolution                       : 24 bits\nColorimetry                      : 4:2:0\nScan type                        : Progressive\nBits/(Pixel*Frame)               : 0.256 \nStream size                      : 1 004 MiB (78%)\nWriting library                  : XviD 1.2.1 (UTC 2008-12-04)\n\nAudio\nID                               : 1\nFormat                           : AC-3\nFormat/Info                      : Audio Coding 3\nCodec ID                         : 2000\nDuration                         : 1h 44mn \nBit rate mode                    : Constant\nBit rate                         : 384 Kbps\nChannel(s)                       : 6 channels\nChannel positions                : Front: L C R, Surround: L R, LFE\nSampling rate                    : 48.0 KHz\nStream size                      : 287 MiB (22%)\nAlignment                        : Aligned on interleaves\nInterleave, duration             : 64 ms (1.53 video frames)\nInterleave, preload duration     : 192 ms\n\nSource: 720p BluRay &lt;a href=&quot;\nhttp://www.imdb.com/title/tt0815236/&quot; rel=&quot;nofollow&quot; target=&quot;_NEW&quot;&gt;\nhttp://www.imdb.com/title/tt0815236/&lt;/a&gt;\n\nScreens: &lt;a href=&quot;\nhttp://www.postimg.com/image/16000/15583.jpg&quot; rel=&quot;nofollow&quot; target=&quot;_NEW&quot;&gt;\nhttp://www.postimg.com/image/16000/15583.jpg&lt;/a&gt; &lt;a href=&quot;\nhttp://www.postimg.com/image/16000/15584.jpg&quot; rel=&quot;nofollow&quot; target=&quot;_NEW&quot;&gt;\nhttp://www.postimg.com/image/16000/15584.jpg&lt;/a&gt; &lt;a href=&quot;\nhttp://www.postimg.com/image/16000/15585.jpg&quot; rel=&quot;nofollow&quot; target=&quot;_NEW&quot;&gt;\nhttp://www.postimg.com/image/16000/15585.jpg&lt;/a&gt; &lt;a href=&quot;\nhttp://www.postimg.com/image/16000/15586.jpg&quot; rel=&quot;nofollow&quot; target=&quot;_NEW&quot;&gt;\nhttp://www.postimg.com/image/16000/15586.jpg&lt;/a&gt; &lt;a href=&quot;\nhttp://www.postimg.com/image/16000/15587.jpg&quot; rel=&quot;nofollow&quot; target=&quot;_NEW&quot;&gt;\nhttp://www.postimg.com/image/16000/15587.jpg&lt;/a&gt;\n\nScreenCaps: &lt;a href=&quot;\nhttp://www.postimg.com/image/16000/15588.jpg&quot; rel=&quot;nofollow&quot; target=&quot;_NEW&quot;&gt;\nhttp://www.postimg.com/image/16000/15588.jpg&lt;/a&gt;\n\nShe's Out of My League (2010) DVDRip XviD-MAX Torrent Free Download &lt;a href=&quot;\nhttp://thepiratebay.se/user/extremezone/0/7&quot; rel=&quot;nofollow&quot; target=&quot;_NEW&quot;&gt;\nhttp://thepiratebay.se/user/extremezone/0/7&lt;/a&gt;\n\nHow To Get Your Maxspeed (uTorrent)\n\nTorrent Client - Preferences - Bandwidth - Number of connections - Set aprox. 500 for each \nTorrent Client - Preferences - BiTorrent - Protocol Encryption - Forced\nBandwidth Allocation - High (Set download/upload limit - Unlimited)\nStop Other Active Torrents - Start downloading and wait for connections\nEnjoy and Seed for at least 1:1 ratio. Don't forget to say thanks/leave reviews.\nAlso please spread the link where you found this torrent to your friends. \nRecommended player for all our movies VLC PLAYER.","torrent":{"xt":"urn:btih:68ecca8cdebf000d7d4e465b9ba9e00f4c628221","amp;dn":"Shes+Out+of+My+League+%282010%29+DVDRip+XviD-MAX","amp;tr":["udp%3A%2F%2Ftracker.openbittorrent.com%3A80","udp%3A%2F%2Fopen.demonii.com%3A1337","udp%3A%2F%2Ftracker.coppersurfer.tk%3A6969","udp%3A%2F%2Fexodus.desync.com%3A6969"],"infoHash":"68ecca8cdebf000d7d4e465b9ba9e00f4c628221","infoHashBuffer":{"type":"Buffer","data":[104,236,202,140,222,191,0,13,125,78,70,91,155,169,224,15,76,98,130,33]},"announce":[],"urlList":[]}}